<svg width="34" height="34" viewBox="0 0 34 34" fill="none" xmlns="http://www.w3.org/2000/svg">
<path d="M18.6001 14.8998C19.2445 15.5442 20.2892 15.5442 20.9335 14.8998C21.578 14.2554 21.578 13.2107 20.9335 12.5664L18.6001 14.8998ZM16.1512 29.0161C16.7955 28.3716 16.7955 27.327 16.1512 26.6827C15.5068 26.0382 14.4621 26.0382 13.8177 26.6827L16.1512 29.0161ZM14.8998 18.6001C14.2554 17.9558 13.2107 17.9558 12.5664 18.6001C11.922 19.2445 11.922 20.2892 12.5664 20.9336L14.8998 18.6001ZM17.3521 4.48073C16.7076 5.12509 16.7076 6.16982 17.3521 6.81418C17.9964 7.45854 19.041 7.45854 19.6855 6.81418L17.3521 4.48073ZM11.5998 14.8998C13.5329 12.9667 16.6671 12.9667 18.6001 14.8998L20.9335 12.5664C17.7118 9.34453 12.4882 9.34453 9.26637 12.5664L11.5998 14.8998ZM12.0001 28.5002C10.067 30.4333 6.93287 30.4333 4.99978 28.5002L2.66637 30.8336C5.8882 34.0555 11.1118 34.0555 14.3336 30.8336L12.0001 28.5002ZM4.99978 28.5002C3.06669 26.567 3.06669 23.433 4.99978 21.4998L2.66637 19.1664C-0.555458 22.3882 -0.555458 27.6118 2.66637 30.8336L4.99978 28.5002ZM4.99978 21.4998L11.5998 14.8998L9.26637 12.5664L2.66637 19.1664L4.99978 21.4998ZM13.8177 26.6827L12.0001 28.5002L14.3336 30.8336L16.1512 29.0161L13.8177 26.6827ZM21.4998 4.99983C23.433 3.06674 26.567 3.06674 28.5001 4.99983L30.8335 2.66637C27.6117 -0.555458 22.3882 -0.555458 19.1664 2.66637L21.4998 4.99983ZM28.5001 4.99983C30.4333 6.93292 30.4333 10.0671 28.5001 12.0002L30.8335 14.3336C34.0555 11.1118 34.0555 5.8882 30.8335 2.66637L28.5001 4.99983ZM21.9001 18.6001C19.967 20.5333 16.8329 20.5333 14.8998 18.6001L12.5664 20.9336C15.7882 24.1555 21.0117 24.1555 24.2335 20.9336L21.9001 18.6001ZM28.5001 12.0002L21.9001 18.6001L24.2335 20.9336L30.8335 14.3336L28.5001 12.0002ZM19.6855 6.81418L21.4998 4.99983L19.1664 2.66637L17.3521 4.48073L19.6855 6.81418Z" fill="url(#paint0_linear_2_95)"/>
<defs>
<linearGradient id="paint0_linear_2_95" x1="16.75" y1="0.25" x2="16.75" y2="33.25" gradientUnits="userSpaceOnUse">
<stop stop-color="#6092FF"/>
<stop offset="1" stop-color="#15367C"/>
</linearGradient>
</defs>
</svg>
