<?xml version="1.0" encoding="utf-8"?><svg viewBox="0 0 197 35" xmlns="http://www.w3.org/2000/svg" xmlns:xlink="http://www.w3.org/1999/xlink"><style>:root>svg{display:none}:root>svg:target{display:block}</style><svg viewBox="0 0 34 34" id="link" xmlns="http://www.w3.org/2000/svg"><path d="M18.6 14.9a1.65 1.65 0 102.333-2.334L18.6 14.9zm-2.449 14.116a1.65 1.65 0 00-2.333-2.333l2.333 2.333zM14.9 18.6a1.65 1.65 0 00-2.334 2.334L14.9 18.6zm2.452-14.12a1.65 1.65 0 102.334 2.334l-2.334-2.333zM11.6 14.9a4.95 4.95 0 017 0l2.333-2.334a8.25 8.25 0 00-11.667 0L11.6 14.9zm.4 13.6a4.95 4.95 0 01-7 0l-2.334 2.334a8.25 8.25 0 0011.668 0L12 28.5zm-7 0a4.95 4.95 0 010-7l-2.334-2.334a8.25 8.25 0 000 11.668L5 28.5zm0-7l6.6-6.6-2.334-2.334-6.6 6.6L5 21.5zm8.818 5.183L12 28.5l2.334 2.334 1.817-1.818-2.333-2.333zM21.5 5a4.95 4.95 0 017 0l2.334-2.334a8.25 8.25 0 00-11.668 0L21.5 5zm7 0a4.95 4.95 0 010 7l2.334 2.334a8.25 8.25 0 000-11.668L28.5 5zm-6.6 13.6a4.95 4.95 0 01-7 0l-2.334 2.334a8.25 8.25 0 0011.667 0L21.9 18.6zm6.6-6.6l-6.6 6.6 2.334 2.334 6.6-6.6L28.5 12zm-8.814-5.186L21.5 5l-2.334-2.334-1.814 1.815 2.334 2.333z"/><defs><linearGradient id="apaint0_linear_2_95" x1="16.75" y1=".25" x2="16.75" y2="33.25" gradientUnits="userSpaceOnUse"><stop stop-color="#6092FF"/><stop offset="1" stop-color="#15367C"/></linearGradient></defs></svg><svg viewBox="0 0 197 35" id="logo" xmlns="http://www.w3.org/2000/svg"><mask id="ba"><path fill-rule="evenodd" clip-rule="evenodd" d="M4 0A4.002 4.002 0 00.096 3.124L32.421 15.17a.8.8 0 01.52.75v4.43a.8.8 0 01-1.08.749L0 9.226v4.222l32.42 12.08a.8.8 0 01.521.75v5.157a.8.8 0 01-.52.75L24.863 35H31a4 4 0 004-4V4a4 4 0 00-4-4H4zm-.41 34.98l17.449-5.36c.754-.23.754-1.297 0-1.529L0 21.631V31a4 4 0 003.59 3.98z"/></mask><g filter="url(#bfilter0_i_6_3)"><path fill-rule="evenodd" clip-rule="evenodd" d="M4 0A4.002 4.002 0 00.096 3.124L32.421 15.17a.8.8 0 01.52.75v4.43a.8.8 0 01-1.08.749L0 9.226v4.222l32.42 12.08a.8.8 0 01.521.75v5.157a.8.8 0 01-.52.75L24.863 35H31a4 4 0 004-4V4a4 4 0 00-4-4H4zm-.41 34.98l17.449-5.36c.754-.23.754-1.297 0-1.529L0 21.631V31a4 4 0 003.59 3.98z"/></g><path d="M.096 3.124l-.293-.065-.057.255.245.091.105-.28zM32.42 15.17l.105-.281-.105.28zm-.558 5.929l.105-.281-.105.28zM0 9.226l.105-.282-.405-.15v.432H0zm0 4.222h-.3v.208l.195.073.105-.281zm32.42 12.08l.105-.28-.105.28zm0 6.656l.105.281-.105-.28zM24.864 35l-.105-.281.105.581V35zm-3.825-5.38l.088.288-.088-.287zm-17.45 5.36l-.03.298.06.006.059-.018-.088-.287zm17.45-6.889l.088-.286-.088.286zM0 21.631l.088-.287-.388-.12v.407H0zM.389 3.189A3.702 3.702 0 014 .3v-.6A4.302 4.302 0 00-.197 3.059l.586.13zm-.398.216L32.316 15.45l.21-.562L.2 2.843l-.21.562zM32.316 15.45a.5.5 0 01.325.469h.6a1.1 1.1 0 00-.716-1.031l-.21.562zm.325.469v4.43h.6v-4.43h-.6zm0 4.43a.5.5 0 01-.674.468l-.21.562a1.1 1.1 0 001.484-1.03h-.6zm-.674.468L.105 8.944l-.21.563 31.862 11.872.21-.562zM.3 13.447V9.227h-.6v4.222h.6zm32.225 11.8L.105 13.167l-.21.562 32.42 12.08.21-.562zm.716 1.03a1.1 1.1 0 00-.716-1.03l-.21.562a.5.5 0 01.326.469h.6zm0 5.157v-5.156h-.6v5.157h.6zm-.716 1.031a1.1 1.1 0 00.716-1.03h-.6a.5.5 0 01-.325.468l.21.562zm-7.557 2.816l7.557-2.816-.21-.562-7.556 2.816.21.562zM31 34.7h-6.136v.6H31v-.6zm3.7-3.7a3.7 3.7 0 01-3.7 3.7v.6a4.3 4.3 0 004.3-4.3h-.6zm0-27v27h.6V4h-.6zM31 .3A3.7 3.7 0 0134.7 4h.6A4.3 4.3 0 0031-.3v.6zM4 .3h27v-.6H4v.6zm16.951 29.034l-17.45 5.359.177.573 17.45-5.358-.177-.574zm0-.956a.5.5 0 010 .956l.176.574c1.036-.319 1.036-1.785 0-2.103l-.176.573zm-21.04-6.46l21.04 6.46.176-.573L.088 21.344l-.176.573zM.3 31v-9.37h-.6V31h.6zm3.32 3.68A3.7 3.7 0 01.3 31h-.6a4.3 4.3 0 003.86 4.278l.06-.597z" mask="url(#ba)"/><g filter="url(#bfilter1_i_6_3)"><path d="M72.3 13.322c0 1.357-.425 2.542-1.277 3.555a5.402 5.402 0 011.209 2.723 5.594 5.594 0 01-.365 2.991c-.395.965-1.004 1.733-1.825 2.305a4.705 4.705 0 01-2.692.834H47V8h20.35c1.369 0 2.532.523 3.49 1.57.974 1.03 1.46 2.28 1.46 3.752zm-4.63 8.166c.364 0 .676-.14.935-.417.258-.278.387-.613.387-1.006 0-.392-.129-.727-.387-1.005a1.232 1.232 0 00-.936-.417H50.947v2.845h16.722zm0-6.4c.364 0 .676-.14.935-.418.258-.278.387-.613.387-1.005 0-.392-.129-.72-.387-.981a1.232 1.232 0 00-.936-.417H50.947v2.82h16.722zM79.829 25.73h-3.947V8h3.947v17.73zM107.479 12.267h-10.06V25.73h-3.947V12.267H83.41V8h24.068v4.267zM111.061 8h3.947v13.488h16.836v4.242h-20.783V8zM139.373 25.73h-3.947V8h3.947v17.73zM157.966 15.283c.851.115 1.505.205 1.962.27.456.065 1.102.164 1.939.294.852.115 1.521.221 2.008.32.486.097 1.095.228 1.825.392.745.147 1.338.302 1.779.465.441.164.943.352 1.506.565.563.196.996.416 1.3.662.32.229.624.49.913.784.304.278.509.589.616.932.106.327.137.679.091 1.055-.015.8-.373 1.504-1.072 2.109-.715.637-1.689 1.16-2.92 1.57a24.555 24.555 0 01-4.495.956 48.456 48.456 0 01-5.658.343c-1.749 0-3.543-.139-5.384-.417a23.496 23.496 0 01-4.676-1.152c-1.415-.54-2.517-1.145-3.308-1.815-.381-.327-.708-.81-.981-1.447-.274-.654-.426-1.218-.457-1.692l3.308.049 3.445.024v.05c.046.392.168.792.365 1.201.32.67 1.171 1.226 2.555 1.668 1.384.425 3.111.637 5.179.637 2.069 0 3.84-.204 5.316-.613 1.49-.425 2.296-.948 2.418-1.57.03-.228-.107-.432-.411-.612-.304-.197-.775-.36-1.414-.49a22.955 22.955 0 00-2.031-.369 74.23 74.23 0 00-2.6-.368h-.137a.193.193 0 00-.091-.024c-4.411-.572-7.559-1.153-9.445-1.741-3.453-1.08-5.194-2.624-5.225-4.635a2.58 2.58 0 01.023-.564h.023c.076-.589.388-1.12.935-1.594.624-.523 1.514-.973 2.67-1.349a24.472 24.472 0 014.152-.834 47.439 47.439 0 019.832-.073c1.156.114 2.304.31 3.445.588.852.197 1.673.49 2.464.883.532.245 1.087.605 1.665 1.08.259.228.487.473.685.735.38.376.661 1.259.844 2.648h-6.502a.292.292 0 01-.046-.098.422.422 0 01-.022-.098c-.107-.327-.236-.58-.388-.76-.533-.768-1.346-1.3-2.441-1.594-1.095-.294-2.502-.441-4.221-.441-1.794 0-3.338.204-4.631.613-1.293.392-2 .874-2.122 1.447-.03.408.495.76 1.574 1.054.883.245 2.829.564 5.841.956zM197 12.267h-10.061V25.73h-3.947V12.267h-10.06V8H197v4.267z"/></g><defs><radialGradient id="bpaint0_radial_6_3" cx="0" cy="0" r="1" gradientUnits="userSpaceOnUse" gradientTransform="rotate(111.991 10.347 12.972) scale(28.8649)"><stop stop-color="#67CFFE"/><stop offset="1" stop-color="#28BCFF"/></radialGradient><radialGradient id="bpaint2_radial_6_3" cx="0" cy="0" r="1" gradientUnits="userSpaceOnUse" gradientTransform="matrix(0 14.5 -120.833 0 84.5 9.5)"><stop stop-color="#5CCCFE"/><stop offset="1" stop-color="#29BDFF"/></radialGradient><radialGradient id="bpaint3_radial_6_3" cx="0" cy="0" r="1" gradientUnits="userSpaceOnUse" gradientTransform="matrix(0 14.5 -120.833 0 84.5 9.5)"><stop stop-color="#5CCCFE"/><stop offset="1" stop-color="#29BDFF"/></radialGradient><radialGradient id="bpaint4_radial_6_3" cx="0" cy="0" r="1" gradientUnits="userSpaceOnUse" gradientTransform="matrix(0 14.5 -120.833 0 84.5 9.5)"><stop stop-color="#5CCCFE"/><stop offset="1" stop-color="#29BDFF"/></radialGradient><filter id="bfilter0_i_6_3" x="0" y="0" width="35" height="36" filterUnits="userSpaceOnUse" color-interpolation-filters="sRGB"><feFlood flood-opacity="0" result="BackgroundImageFix"/><feBlend in="SourceGraphic" in2="BackgroundImageFix" result="shape"/><feColorMatrix in="SourceAlpha" values="0 0 0 0 0 0 0 0 0 0 0 0 0 0 0 0 0 0 127 0" result="hardAlpha"/><feOffset dy="1"/><feGaussianBlur stdDeviation="1"/><feComposite in2="hardAlpha" operator="arithmetic" k2="-1" k3="1"/><feColorMatrix values="0 0 0 0 1 0 0 0 0 1 0 0 0 0 1 0 0 0 0.32 0"/><feBlend mode="overlay" in2="shape" result="effect1_innerShadow_6_3"/></filter><filter id="bfilter1_i_6_3" x="47" y="8" width="150" height="19" filterUnits="userSpaceOnUse" color-interpolation-filters="sRGB"><feFlood flood-opacity="0" result="BackgroundImageFix"/><feBlend in="SourceGraphic" in2="BackgroundImageFix" result="shape"/><feColorMatrix in="SourceAlpha" values="0 0 0 0 0 0 0 0 0 0 0 0 0 0 0 0 0 0 127 0" result="hardAlpha"/><feOffset dy="1"/><feGaussianBlur stdDeviation="2.5"/><feComposite in2="hardAlpha" operator="arithmetic" k2="-1" k3="1"/><feColorMatrix values="0 0 0 0 1 0 0 0 0 1 0 0 0 0 1 0 0 0 0.6 0"/><feBlend mode="overlay" in2="shape" result="effect1_innerShadow_6_3"/></filter><linearGradient id="bpaint1_linear_6_3" x1="17.5" y1="0" x2="17.5" y2="3" gradientUnits="userSpaceOnUse"><stop stop-color="#fff" stop-opacity=".48"/><stop offset="1" stop-color="#fff" stop-opacity="0"/></linearGradient></defs></svg></svg>